<svg id="Capa_1" data-name="Capa 1" xmlns="http://www.w3.org/2000/svg" viewBox="0 0 1195.2 340.8"><defs><style>.cls-1{fill:#fff;}</style></defs><title>Mesa de trabajo 1 copia</title><path class="cls-1" d="M122.71,311.69V210.52H75.61V311.69H12V80.87A47,47,0,0,1,47.47,35.53a208.14,208.14,0,0,1,51.69-6.42c21.54,0,43.45,3.28,62.56,9.73a35.49,35.49,0,0,1,24.18,33.6V311.69Zm0-234.13c-6.67-3.1-14.91-4.65-23.55-4.65q-13.53,0-23.55,4.65v88.77h47.1Z"/><path class="cls-1" d="M914.71,311.69V210.52h-47.1V311.69H804V80.87a47,47,0,0,1,35.44-45.34,208.14,208.14,0,0,1,51.69-6.42c21.54,0,43.45,3.28,62.56,9.73a35.49,35.49,0,0,1,24.18,33.6V311.69Zm0-234.13c-6.67-3.1-14.91-4.65-23.55-4.65q-13.53,0-23.55,4.65v88.77h47.1Z"/><path class="cls-1" d="M330.72,311.69V79.89c-6.67-3.1-14.52-4.65-25.9-4.65s-19.23,1.55-26.3,4.65v231.8H214.94V80.11a45.2,45.2,0,0,1,33-43.36,215.39,215.39,0,0,1,112.12-.43A46.59,46.59,0,0,1,394.3,81.18V311.69Z"/><path class="cls-1" d="M527.74,80.92V311.69h-64V80.92H415.5V29.11H576V80.92Z"/><path class="cls-1" d="M721.23,312.87H656.47c-32.18-34.93-57.69-76.53-57.69-149.14V29.11h64V163.34c0,57.69,18,81.2,25.9,104,12.17-20.41,25.91-45.92,25.91-104V29.11h64V163.73C778.53,235.94,753,277.94,721.23,312.87Z"/><path class="cls-1" d="M1095.65,315.22c-31-.39-62.41-5.81-87.92-18.61V212.1h63.58v55.44a82.2,82.2,0,0,0,24.34,3.49c8.24,0,16.48-.78,24.33-3.49V204.73l-112.25-31.4V47.72c25.51-12.79,56.13-18.61,87.92-18.61,31.39,0,62,5.43,87.52,18.61v83.35h-63.58V76.8c-7.46-2.72-14.92-3.49-23.94-3.49s-16.1.77-24.34,3.49v60.86l111.86,31V296.61C1158.05,309.41,1126.26,315.22,1095.65,315.22Z"/></svg>